<?xml version="1.0" encoding="UTF-8" standalone="no"?>
<svg
   xmlns:dc="http://purl.org/dc/elements/1.1/"
   xmlns:cc="http://creativecommons.org/ns#"
   xmlns:rdf="http://www.w3.org/1999/02/22-rdf-syntax-ns#"
   xmlns:svg="http://www.w3.org/2000/svg"
   xmlns="http://www.w3.org/2000/svg"
   xmlns:xlink="http://www.w3.org/1999/xlink"
   xmlns:sodipodi="http://sodipodi.sourceforge.net/DTD/sodipodi-0.dtd"
   xmlns:inkscape="http://www.inkscape.org/namespaces/inkscape"
   version="1.1"
   x="0"
   y="0"
   width="800"
   height="826.62097"
   viewBox="0 0 799.99999 826.62099"
   id="svg51"
   sodipodi:docname="openclipart.org - Male Computer Technician.svg"
   inkscape:version="0.92.4 (5da689c313, 2019-01-14)">
  <title
     id="title901">Male Computer Technician</title>
  <metadata
     id="metadata57">
    <rdf:RDF>
      <cc:Work
         rdf:about="">
        <dc:format>image/svg+xml</dc:format>
        <dc:type
           rdf:resource="http://purl.org/dc/dcmitype/StillImage" />
        <dc:title>Male Computer Technician</dc:title>
        <cc:license
           rdf:resource="http://creativecommons.org/publicdomain/zero/1.0/" />
      </cc:Work>
      <cc:License
         rdf:about="http://creativecommons.org/publicdomain/zero/1.0/">
        <cc:permits
           rdf:resource="http://creativecommons.org/ns#Reproduction" />
        <cc:permits
           rdf:resource="http://creativecommons.org/ns#Distribution" />
        <cc:permits
           rdf:resource="http://creativecommons.org/ns#DerivativeWorks" />
      </cc:License>
    </rdf:RDF>
  </metadata>
  <defs
     id="defs55">
    <linearGradient
       id="linearGradient2204">
      <stop
         style="stop-color:#f30000;stop-opacity:1;"
         offset="0"
         id="stop2198" />
      <stop
         id="stop2200"
         offset="0.45542261"
         style="stop-color:#f97979;stop-opacity:1;" />
      <stop
         style="stop-color:#fff2f2;stop-opacity:1"
         offset="1"
         id="stop2202" />
    </linearGradient>
    <linearGradient
       id="linearGradient1248">
      <stop
         id="stop1244"
         offset="0"
         style="stop-color:#f30000;stop-opacity:1;" />
      <stop
         style="stop-color:#f97979;stop-opacity:1;"
         offset="0.49753603"
         id="stop1250" />
      <stop
         id="stop1246"
         offset="1"
         style="stop-color:#fff2f2;stop-opacity:1" />
    </linearGradient>
    <linearGradient
       id="linearGradient1210">
      <stop
         style="stop-color:#f30000;stop-opacity:1;"
         offset="0"
         id="stop1206" />
      <stop
         style="stop-color:#fff2f2;stop-opacity:1"
         offset="1"
         id="stop1208" />
    </linearGradient>
    <linearGradient
       xlink:href="#linearGradient1210"
       id="linearGradient1212"
       x1="-68.04171"
       y1="252.5378"
       x2="-91.209602"
       y2="301.30273"
       gradientUnits="userSpaceOnUse"
       gradientTransform="translate(-0.41997354,-0.1091931)" />
    <linearGradient
       xlink:href="#linearGradient1248"
       id="linearGradient1241"
       gradientUnits="userSpaceOnUse"
       x1="77.115669"
       y1="439.5173"
       x2="81.560188"
       y2="480.26212"
       gradientTransform="translate(164.18827,21.013275)" />
    <linearGradient
       xlink:href="#linearGradient2204"
       id="linearGradient2196"
       gradientUnits="userSpaceOnUse"
       x1="174.43593"
       y1="535.42645"
       x2="190.8952"
       y2="589.85101"
       gradientTransform="translate(-101.90915,-2.6841913)" />
  </defs>
  <sodipodi:namedview
     pagecolor="#ffffff"
     bordercolor="#666666"
     borderopacity="1"
     objecttolerance="10"
     gridtolerance="10"
     guidetolerance="10"
     inkscape:pageopacity="0"
     inkscape:pageshadow="2"
     inkscape:window-width="640"
     inkscape:window-height="480"
     id="namedview53"
     showgrid="false"
     inkscape:zoom="0.68328703"
     inkscape:cx="305.9654"
     inkscape:cy="532.16592"
     inkscape:current-layer="svg51"
     fit-margin-top="0"
     fit-margin-left="0"
     fit-margin-right="0"
     fit-margin-bottom="0" />
  <g
     id="g2401"
     transform="matrix(0.95205661,0,0,0.95205661,-3.6348239e-4,5.5460907e-5)">
    <g
       id="Layer_1">
      <path
         id="path833"
         d="m 771.559,521.328 c 15.415,3.475 43.3,12.9 53.165,30.66 7.55,13.59 14.84,31.68 10.575,67.955 -3.025,25.675 -13.59,126.855 -28.695,146.485 0,0 -9.055,9.07 -16.61,12.085 -7.555,3.02 -34.73,-1.51 -42.285,-1.51 -7.555,0 23.85,-255.675 23.85,-255.675"
         inkscape:connector-curvature="0"
         style="fill:#8a8b8a" />
      <path
         id="path835"
         d="m 771.559,521.328 c 15.415,3.475 43.3,12.9 53.165,30.66 7.55,13.59 14.84,31.68 10.575,67.955 -3.025,25.675 -13.59,126.855 -28.695,146.485 0,0 -9.055,9.07 -16.61,12.085 -7.555,3.02 -34.73,-1.51 -42.285,-1.51 -7.555,0 23.85,-255.675 23.85,-255.675 z"
         inkscape:connector-curvature="0"
         style="fill-opacity:0;stroke:#1a1919;stroke-width:7.5;stroke-linecap:round;stroke-linejoin:round" />
      <path
         id="path837"
         d="m 684.059,512.578 c 3.75,0 67.14,0.025 87.5,8.75 17.5,7.5 37.5,16.25 40,40 2.5,23.75 -7.5,167.5 -28.75,196.25 -5,3.75 -6.25,12.5 -21.25,17.5 -15,5 -102.5,-5 -102.5,-5 l 25,-257.5"
         inkscape:connector-curvature="0"
         style="fill:#4d7bb1" />
      <path
         id="path839"
         d="m 684.059,512.578 c 3.75,0 67.14,0.025 87.5,8.75 17.5,7.5 37.5,16.25 40,40 2.5,23.75 -7.5,167.5 -28.75,196.25 -5,3.75 -6.25,12.5 -21.25,17.5 -15,5 -102.5,-5 -102.5,-5 l 25,-257.5"
         inkscape:connector-curvature="0"
         style="fill:#4d7bb1" />
      <path
         id="path841"
         d="m 811.559,561.328 c -2.5,-23.75 -22.5,-32.5 -40,-40 -12.07,-5.17 -39.26,-7.29 -60.185,-8.15 -10.73,3.1 -18.035,5.585 -18.035,5.585 l 19.64,-1.51 c 7.545,0 75.505,22.655 80.04,36.245 4.525,13.59 -10.58,175.18 -22.66,199.34 -4.18,8.36 -7.975,16.145 -11.185,22.795 0.905,-0.16 1.735,-0.34 2.385,-0.555 15,-5 16.25,-13.75 21.25,-17.5 21.25,-28.75 31.25,-172.5 28.75,-196.25"
         inkscape:connector-curvature="0"
         style="fill:#7a97c1" />
      <path
         id="path843"
         d="m 684.059,512.578 c 3.75,0 67.14,0.025 87.5,8.75 17.5,7.5 37.5,16.25 40,40 2.5,23.75 -7.5,167.5 -28.75,196.25 -5,3.75 -6.25,12.5 -21.25,17.5 -15,5 -102.5,-5 -102.5,-5 z"
         inkscape:connector-curvature="0"
         style="fill-opacity:0;stroke:#1a1919;stroke-width:7.5;stroke-linecap:round;stroke-linejoin:round" />
      <path
         id="path845"
         d="m 222.124,659.073 c 5,1.25 48.75,26.25 61.25,50 l 13.75,-15 c 0,0 -28.75,-37.5 -35,-41.25 -6.25,-3.75 -46.25,3.75 -46.25,3.75 l 6.25,2.5"
         inkscape:connector-curvature="0"
         style="fill:#fffffe" />
      <path
         id="path847"
         d="m 222.124,659.073 c 5,1.25 48.75,26.25 61.25,50 l 13.75,-15 c 0,0 -28.75,-37.5 -35,-41.25 -6.25,-3.75 -46.25,3.75 -46.25,3.75 z"
         inkscape:connector-curvature="0"
         style="fill-opacity:0;stroke:#1a1919;stroke-width:7.5;stroke-linecap:round;stroke-linejoin:round" />
      <path
         id="path849"
         d="m 593.374,367.823 c 5,1.25 12.5,2.5 16.25,5 3.75,2.5 17.5,27.5 21.25,35 2.5,0 51.25,43.75 66.25,66.25 15,22.5 -30,295 -31.25,298.75 -1.25,3.75 -1.25,1.25 -1.25,3.75 0,2.5 -245,-38.75 -245,-38.75 -10,-18.75 -42.5,-102.5 -48.75,-126.25 -2.5,2.5 -18.75,52.5 -27.5,62.5 -10.32,11.785 -37.5,41.25 -55,51.25 0,-2.5 -11.275,-28.36 -25.845,-42.93 -18.65,-18.645 -45.405,-29.57 -51.655,-29.57 0,0 -1.25,-6.25 2.5,-7.5 3.75,-1.25 47.5,-16.25 47.5,-16.25 0,-3.75 1.25,-18.75 7.5,-18.75 6.25,0 10,-2.5 10,-2.5 3.75,-7.5 56.25,-130 61.25,-137.5 0,-5 17.5,-30 17.5,-30 0,0 27.5,-18.75 35,-22.5 7.5,-3.75 201.25,-50 201.25,-50"
         inkscape:connector-curvature="0"
         style="fill:#464d5a" />
      <path
         id="path851"
         d="m 593.374,367.823 c 5,1.25 12.5,2.5 16.25,5 3.75,2.5 17.5,27.5 21.25,35 2.5,0 51.25,43.75 66.25,66.25 15,22.5 -30,295 -31.25,298.75 -1.25,3.75 -1.25,1.25 -1.25,3.75 0,2.5 -245,-38.75 -245,-38.75 -10,-18.75 -42.5,-102.5 -48.75,-126.25 -2.5,2.5 -18.75,52.5 -27.5,62.5 -10.32,11.785 -37.5,41.25 -55,51.25 0,-2.5 -11.275,-28.36 -25.845,-42.93 -18.65,-18.645 -45.405,-29.57 -51.655,-29.57 0,0 -1.25,-6.25 2.5,-7.5 3.75,-1.25 47.5,-16.25 47.5,-16.25 0,-3.75 1.25,-18.75 7.5,-18.75 6.25,0 10,-2.5 10,-2.5 3.75,-7.5 56.25,-130 61.25,-137.5 0,-5 17.5,-30 17.5,-30 0,0 27.5,-18.75 35,-22.5 7.5,-3.75 201.25,-50 201.25,-50 z"
         inkscape:connector-curvature="0"
         style="fill-opacity:0;stroke:#1a1919;stroke-width:7.5;stroke-linecap:round;stroke-linejoin:round" />
      <path
         id="path853"
         d="m 407.124,440.323 c 0,15 11.25,158.75 38.75,220 12.5,-11.25 122.5,-211.25 142.5,-241.25 -1.25,-5 -108.75,-13.75 -113.75,-13.75 -5,0 -67.5,35 -67.5,35"
         inkscape:connector-curvature="0"
         style="fill:#fffffe" />
      <path
         id="path855"
         d="m 407.124,440.323 c 0,15 11.25,158.75 38.75,220 12.5,-11.25 122.5,-211.25 142.5,-241.25 -1.25,-5 -108.75,-13.75 -113.75,-13.75 -5,0 -67.5,35 -67.5,35 z"
         inkscape:connector-curvature="0"
         style="fill-opacity:0;stroke:#1a1919;stroke-width:7.5;stroke-linecap:round;stroke-linejoin:round" />
      <path
         id="path857"
         d="m 445.874,660.323 c 4.365,-3.93 20.63,-30.895 40.785,-65.575 0.44,-22.93 0.645,-50.315 -0.785,-53.175 -2.5,-5 -5,-15 -5,-15 0,0 8.47,-10.69 12.5,-18.75 6.25,-12.5 13.75,-18.75 11.25,-25 -2.5,-6.25 -8.75,-26.25 -8.75,-26.25 0,0 -30.625,-3.125 -37.5,3.75 -4.76,4.76 -16.25,20 -16.25,20 0,0 -1.25,37.5 0,42.5 0,0 -12.52,44.72 -16.385,67.58 5.405,26.845 12.065,51.945 20.135,69.92"
         inkscape:connector-curvature="0"
         style="fill:#d8127d" />
      <path
         id="path859"
         d="m 445.874,660.323 c 4.365,-3.93 20.63,-30.895 40.785,-65.575 0.44,-22.93 0.645,-50.315 -0.785,-53.175 -2.5,-5 -5,-15 -5,-15 0,0 8.47,-10.69 12.5,-18.75 6.25,-12.5 13.75,-18.75 11.25,-25 -2.5,-6.25 -8.75,-26.25 -8.75,-26.25 0,0 -30.625,-3.125 -37.5,3.75 -4.76,4.76 -16.25,20 -16.25,20 0,0 -1.25,37.5 0,42.5 0,0 -12.52,44.72 -16.385,67.58 5.405,26.845 12.065,51.945 20.135,69.92 z m -1.25,-141.25 c 3.75,0 36.25,7.5 36.25,7.5 m -38.75,-46.25 c 0,0 -21.25,17.5 -25,25 m 88.75,-18.75 c 1.25,3.75 18.75,27.5 20,35 m -247.5,86.25 c 25,10 52.5,-3.75 60,-8.75 m 6.25,-120 c -1.25,12.5 17.5,102.5 26.25,132.5"
         inkscape:connector-curvature="0"
         style="fill-opacity:0;stroke:#1a1919;stroke-width:7.5;stroke-linecap:round;stroke-linejoin:round" />
      <path
         id="path861"
         d="m 288.374,725.323 c -1.25,1.25 -16.25,6.25 -16.25,6.25 0,0 -17.5,12.5 -25,17.5 -7.5,5 -23.75,6.25 -30,7.5 -6.25,1.25 -15,-16.25 5,-25 l -1.25,-7.5 -35,6.25 1.25,7.5 c 0,0 5,17.5 -3.75,30 l -11.25,-2.5 -8.75,-13.75 c 0,11.25 -3.75,17.5 -8.75,20 0,0 -13.75,-5 -16.25,-15 0,0 -4.675,14.385 -11.25,10 -3.75,-2.5 -8.75,-7.5 -12.5,-13.75 l -5,8.75 c 0,0 -10,-10 -11.25,-17.5 -1.25,-7.5 2.5,-22.5 2.5,-22.5 0,0 8.75,-13.75 12.5,-13.75 1.25,-3.75 10,-11.25 10,-11.25 l 10,-5 8.75,-10 10,-5 11.25,-12.5 c 0,0 28.75,-16.25 47.5,-11.25 18.75,5 68.75,35 77.5,72.5"
         inkscape:connector-curvature="0"
         style="fill:#f4bb9d" />
      <path
         id="path863"
         d="m 288.374,725.323 c -1.25,1.25 -16.25,6.25 -16.25,6.25 0,0 -17.5,12.5 -25,17.5 -7.5,5 -23.75,6.25 -30,7.5 -6.25,1.25 -15,-16.25 5,-25 l -1.25,-7.5 -35,6.25 1.25,7.5 c 0,0 5,17.5 -3.75,30 l -11.25,-2.5 -8.75,-13.75 c 0,11.25 -3.75,17.5 -8.75,20 0,0 -13.75,-5 -16.25,-15 0,0 -4.675,14.385 -11.25,10 -3.75,-2.5 -8.75,-7.5 -12.5,-13.75 l -5,8.75 c 0,0 -10,-10 -11.25,-17.5 -1.25,-7.5 2.5,-22.5 2.5,-22.5 0,0 8.75,-13.75 12.5,-13.75 1.25,-3.75 10,-11.25 10,-11.25 l 10,-5 8.75,-10 10,-5 11.25,-12.5 c 0,0 28.75,-16.25 47.5,-11.25 18.75,5 68.75,35 77.5,72.5 z m -173.75,-11.25 c 0,3.75 -2.5,16.25 -2.5,23.75 0,7.5 2.5,15 2.5,15 m 21.25,-51.25 c -1.25,7.5 -3.75,21.25 -3.75,27.5 0,6.25 2.5,22.5 6.25,27.5 m 15,-75 c 0,8.75 -2.5,26.25 -2.5,31.25 0,5 8.75,30 8.75,30 l 6.25,10 m 20,-60 c 0,8.75 -7.5,25 -7.5,25 l 7.5,16.25 m 1.25,-35 c 3.75,0 13.75,-6.25 13.75,-6.25 m 21.25,38.75 c 6.25,-2.5 10,-3.75 10,-3.75 l 6.25,-15 -5,-8.75 m 152.5,-276.25 -20,55 c 0,0 20,15 25,18.75 m 17.5,-11.25 c -2.5,3.75 -30,23.75 -33.75,33.75 -3.75,10 26.25,110 65,146.25 m 187.5,-268.75 c 1.25,5 -1.25,77.5 -2.5,81.25 0,0 -50,25 -57.5,32.5 m -20,-20 c 2.5,5 35,40 38.75,43.75 -2.5,10 -117.5,115 -143.75,145 -7.5,12.5 0,45 2.5,56.25 m 5,-83.75 c 0,0 -10,18.75 -7.5,27.5 m 80,-50 c 11.25,8.75 72.5,21.25 105,18.75 m -150,59.375 c 0,5.865 -4.755,10.625 -10.625,10.625 -5.87,0 -10.625,-4.76 -10.625,-10.625 0,-5.87 4.755,-10.625 10.625,-10.625 5.87,0 10.625,4.755 10.625,10.625 z"
         inkscape:connector-curvature="0"
         style="fill-opacity:0;stroke:#1a1919;stroke-width:7.5;stroke-linecap:round;stroke-linejoin:round" />
      <path
         id="path865"
         d="m 330.874,121.573 c -11.25,30 -13.75,46.25 -13.75,46.25 0,0 -11.25,25 -11.25,30 l 15,-11.25 c 0,0 -15,27.5 -15,33.75 0,6.25 33.75,-17.5 37.5,-18.75 3.75,-1.25 317.5,136.25 317.5,136.25 0,0 7.5,-8.75 17.5,-21.25 10,-12.5 36.25,-46.25 36.25,-65 0,-18.75 -2.5,-26.25 -2.5,-26.25 0.405,-49.6 -3.75,-98.75 -30,-118.75 3.75,-1.25 22.5,5 26.25,5 0,-3.75 -17.5,-33.75 -45,-37.5 1.25,-6.25 13.75,-12.5 18.75,-13.75 0,0 -30,-22.5 -51.25,-12.5 -12.5,-11.25 -28.75,-26.25 -36.25,-30 -7.5,-3.75 -27.5,-11.25 -37.5,-12.5 l 6.25,10 c -7.5,-6.25 -46.25,-15 -61.25,-10 0,3.75 5,3.75 5,3.75 -27.925,-3.35 -142.905,18.345 -176.25,112.5"
         inkscape:connector-curvature="0"
         style="fill:#2d2118" />
      <path
         id="path867"
         d="m 330.874,121.573 c -11.25,30 -13.75,46.25 -13.75,46.25 0,0 -11.25,25 -11.25,30 l 15,-11.25 c 0,0 -15,27.5 -15,33.75 0,6.25 33.75,-17.5 37.5,-18.75 3.75,-1.25 317.5,136.25 317.5,136.25 0,0 7.5,-8.75 17.5,-21.25 10,-12.5 36.25,-46.25 36.25,-65 0,-18.75 -2.5,-26.25 -2.5,-26.25 0.405,-49.6 -3.75,-98.75 -30,-118.75 3.75,-1.25 22.5,5 26.25,5 0,-3.75 -17.5,-33.75 -45,-37.5 1.25,-6.25 13.75,-12.5 18.75,-13.75 0,0 -30,-22.5 -51.25,-12.5 -12.5,-11.25 -28.75,-26.25 -36.25,-30 -7.5,-3.75 -27.5,-11.25 -37.5,-12.5 l 6.25,10 c -7.5,-6.25 -46.25,-15 -61.25,-10 0,3.75 5,3.75 5,3.75 -27.925,-3.35 -142.905,18.345 -176.25,112.5 z"
         inkscape:connector-curvature="0"
         style="fill-opacity:0;stroke:#1a1919;stroke-width:7.5;stroke-linecap:round;stroke-linejoin:round" />
      <path
         id="path869"
         d="m 343.374,201.573 c -1.25,3.75 -7.5,46.25 -10,55 0,0 -12.5,58.75 -7.5,76.25 5,17.5 22.5,48.75 38.75,71.25 16.25,22.5 38.75,42.5 51.25,50 12.5,7.5 37.5,6.25 42.5,6.25 5,0 13.75,-1.25 13.75,-1.25 0,0 26.25,7.5 30,7.5 3.75,-2.5 33.75,2.5 86.25,-47.5 2.5,-7.5 11.25,-28.75 15,-42.5 0,0 12.5,-16.25 15,-21.25 3.75,3.75 3.75,3.75 12.5,3.75 8.75,0 33.75,-15 50,-55 3.75,-16.25 -2.5,-56.25 -16.25,-55 -13.75,1.25 -30,11.25 -30,11.25 0,0 -20,-30 -26.25,-33.75 l 12.5,-22.5 c 0,0 -1.25,-28.75 -20,-42.5 -17.5,15 -73.75,38.75 -86.25,41.25 -12.5,2.5 -41.25,-6.25 -51.25,-8.75 -15,0 -60,1.25 -71.25,-10 -16.25,11.25 -43.75,17.5 -48.75,17.5"
         inkscape:connector-curvature="0"
         style="fill:#f4bb9d" />
      <path
         id="path871"
         d="m 343.374,201.573 c -1.25,3.75 -7.5,46.25 -10,55 0,0 -12.5,58.75 -7.5,76.25 5,17.5 22.5,48.75 38.75,71.25 16.25,22.5 38.75,42.5 51.25,50 12.5,7.5 37.5,6.25 42.5,6.25 5,0 13.75,-1.25 13.75,-1.25 0,0 26.25,7.5 30,7.5 3.75,-2.5 33.75,2.5 86.25,-47.5 2.5,-7.5 11.25,-28.75 15,-42.5 0,0 12.5,-16.25 15,-21.25 3.75,3.75 3.75,3.75 12.5,3.75 8.75,0 33.75,-15 50,-55 3.75,-16.25 -2.5,-56.25 -16.25,-55 -13.75,1.25 -30,11.25 -30,11.25 0,0 -20,-30 -26.25,-33.75 l 12.5,-22.5 c 0,0 -1.25,-28.75 -20,-42.5 -17.5,15 -73.75,38.75 -86.25,41.25 -12.5,2.5 -41.25,-6.25 -51.25,-8.75 -15,0 -60,1.25 -71.25,-10 -16.25,11.25 -43.75,17.5 -48.75,17.5 z m 48.75,-17.5 c 31.25,-22.5 142.5,-68.75 167.5,-58.75"
         inkscape:connector-curvature="0"
         style="fill-opacity:0;stroke:#1a1919;stroke-width:7.5;stroke-linecap:round;stroke-linejoin:round" />
      <path
         id="path873"
         d="m 618.374,237.823 c 2.5,15 -1.25,80 -3.75,92.5 5,-6.25 22.5,-52.5 21.25,-83.75"
         inkscape:connector-curvature="0"
         style="fill:#2d2118" />
      <path
         id="path875"
         d="m 618.374,237.823 c 2.5,15 -1.25,80 -3.75,92.5 5,-6.25 22.5,-52.5 21.25,-83.75 m 2.5,66.25 c 5,-3.75 8.75,-6.25 6.25,-10 -2.5,-3.75 -15,-7.5 -10,-15 5,-7.5 15,-11.25 18.75,-13.75 3.75,-2.5 10,16.25 10,16.25 m -272.5,-20 c -3.75,10 -27.5,43.75 -28.75,52.5 -1.25,8.75 1.25,16.25 8.75,18.75 7.5,2.5 27.5,3.75 30,-1.25 m -12.5,35 c 7.5,5 22.5,13.75 26.25,13.75 3.75,0 38.75,6.25 55,-2.5 m 57.5,-187.5 c 6.25,-6.25 25,3.75 23.75,31.25 m -78.75,228.75 c 5,-1.25 30,-12.5 41.25,-18.75 m 91.25,-67.5 c -3.75,5 -20,20 -23.75,25"
         inkscape:connector-curvature="0"
         style="fill-opacity:0;stroke:#1a1919;stroke-width:7.5;stroke-linecap:round;stroke-linejoin:round" />
      <path
         id="path877"
         d="m 496.289,288.913 c 0.215,12.43 -3.72,22.57 -8.78,22.66 -5.06,0.08 -9.335,-9.925 -9.55,-22.345 -0.215,-12.42 3.715,-22.565 8.78,-22.65 5.055,-0.085 9.335,9.915 9.55,22.335"
         inkscape:connector-curvature="0"
         style="fill:#1a1919" />
      <path
         id="path879"
         d="m 370.039,260.163 c 0.215,12.43 -3.72,22.57 -8.78,22.66 -5.06,0.08 -9.335,-9.925 -9.55,-22.345 -0.215,-12.42 3.715,-22.565 8.78,-22.65 5.055,-0.085 9.335,9.915 9.55,22.335"
         inkscape:connector-curvature="0"
         style="fill:#1a1919" />
      <path
         id="path881"
         d="m 534.334,347.188 c -1.52,11.64 -15.79,19.37 -31.875,17.265 -16.09,-2.1 -27.9,-13.24 -26.375,-24.875 1.52,-11.64 15.79,-19.37 31.88,-17.265 16.085,2.1 27.895,13.23 26.37,24.875"
         inkscape:connector-curvature="0"
         style="fill:#eb9174" />
      <path
         id="path883"
         d="m 359.454,307.828 c -0.45,-9.82 -10.07,-17.645 -22.7,-19.49 -3.95,10.225 -6.345,18.85 -7.45,25.37 -0.69,4.125 -0.72,9.99 -0.34,16.71 0.705,0.005 1.405,0.015 2.12,-0.02 16.205,-0.735 28.905,-10.845 28.37,-22.57"
         inkscape:connector-curvature="0"
         style="fill:#eb9174" />
      <path
         id="path885"
         d="m 472.529,79.058 c -13.33,-5 -128.33,43.33 -160,105"
         inkscape:connector-curvature="0"
         style="fill-opacity:0;stroke:#1a1919;stroke-width:7.5;stroke-linecap:round;stroke-linejoin:round" />
      <path
         id="path887"
         d="m 84.234,755.343 7.98,33.245 260.65,49.21 -5.32,-37.24 -263.31,-45.215"
         inkscape:connector-curvature="0"
         style="fill:#2c2c2b" />
      <path
         id="path889"
         d="m 84.234,755.343 7.98,33.245 260.65,49.21 -5.32,-37.24 z"
         inkscape:connector-curvature="0"
         style="fill-opacity:0;stroke:#1a1919;stroke-width:7.5;stroke-linecap:round;stroke-linejoin:round" />
      <path
         id="path891"
         d="m 347.544,800.558 5.32,37.24 17.29,-6.65 -3.99,-33.25 -18.62,2.66"
         inkscape:connector-curvature="0"
         style="fill:#636463" />
      <path
         id="path893"
         d="m 347.544,800.558 5.32,37.24 17.29,-6.65 -3.99,-33.25 -18.62,2.66"
         inkscape:connector-curvature="0"
         style="fill-opacity:0;stroke:#1a1919;stroke-width:7.5;stroke-linecap:round;stroke-linejoin:round" />
      <path
         id="path895"
         d="m 370.154,831.148 219.425,-29.26 9.31,-17.29 -231.395,29.26 2.66,17.29"
         inkscape:connector-curvature="0"
         style="fill:#777776" />
      <path
         id="path897"
         d="m 370.154,831.148 219.425,-29.26 9.31,-17.29 -231.395,29.26 z"
         inkscape:connector-curvature="0"
         style="fill-opacity:0;stroke:#1a1919;stroke-width:7.5;stroke-linecap:round;stroke-linejoin:round" />
      <path
         id="path899"
         d="m 598.889,784.598 -231.395,29.26 -1.33,-11.97 234.06,-27.93 -1.335,10.64"
         inkscape:connector-curvature="0"
         style="fill:#777776" />
      <path
         id="path901"
         d="m 598.889,784.598 -231.395,29.26 -1.33,-11.97 234.06,-27.93 z"
         inkscape:connector-curvature="0"
         style="fill-opacity:0;stroke:#1a1919;stroke-width:7.5;stroke-linecap:round;stroke-linejoin:round" />
      <path
         id="path903"
         d="m 366.164,801.888 234.06,-27.93 -3.995,-9.305 -244.695,-34.58 14.63,71.815"
         inkscape:connector-curvature="0"
         style="fill:#8a8b8a" />
      <path
         id="path905"
         d="m 366.164,801.888 234.06,-27.93 -3.995,-9.305 -244.695,-34.58 z"
         inkscape:connector-curvature="0"
         style="fill-opacity:0;stroke:#1a1919;stroke-width:7.5;stroke-linecap:round;stroke-linejoin:round" />
      <path
         id="path907"
         d="m 379.464,760.663 c 0,0 -29.26,5.315 -34.575,6.645 m 22.605,18.625 c 5.32,-1.335 95.745,-13.3 95.745,-13.3 l -103.725,-15.96 m 47.875,10.635 c 0,0 -47.875,7.98 -51.865,10.645 m 2.66,-15.96 c 3.99,1.33 67.825,13.295 67.825,13.295 m -87.775,-10.635 c 5.32,1.325 59.845,15.955 59.845,15.955"
         inkscape:connector-curvature="0"
         style="fill-opacity:0;stroke:#1a1919;stroke-width:5;stroke-linecap:round;stroke-linejoin:round" />
      <path
         id="path909"
         d="m 314.364,512.838 -20.01,9.78 55.85,283.26 19.95,-5.32 -55.79,-287.72"
         inkscape:connector-curvature="0"
         style="fill:#cbcccb" />
      <path
         id="path911"
         d="m 314.364,512.838 -20.01,9.78 55.85,283.26 19.95,-5.32 z"
         inkscape:connector-curvature="0"
         style="fill-opacity:0;stroke:#1a1919;stroke-width:7.5;stroke-linecap:round;stroke-linejoin:round" />
      <path
         id="path913"
         d="m 296.114,531.563 54.09,274.315 -273.34,-48.04 -72.5,-236.945 c -1.685,-7.85 0.625,-12.345 0.625,-12.345 l 12.755,-6.38 296.62,10.67 -15.925,9.53 c -4.255,1.065 -2.52,4.565 -2.325,9.195"
         inkscape:connector-curvature="0"
         style="fill:#b4b5b4" />
      <path
         id="path915"
         d="m 296.114,531.563 54.09,274.315 -273.34,-48.04 -72.5,-236.945 c -1.685,-7.85 0.625,-12.345 0.625,-12.345 l 12.755,-6.38 296.62,10.67 -15.925,9.53 c -4.255,1.065 -2.52,4.565 -2.325,9.195 z M 15.619,514.923 c 6.38,1.065 251.98,11.695 260.49,11.695"
         inkscape:connector-curvature="0"
         style="fill-opacity:0;stroke:#1a1919;stroke-width:7.5;stroke-linecap:round;stroke-linejoin:round" />
      <path
         id="path917"
         d="m 589.624,764.073 c -7.5,0 -52.5,-2.5 -58.75,-2.5 -6.25,0 -21.25,13.75 -30,20 1.25,7.5 13.75,10 21.25,8.75 -6.25,8.75 -11.25,15 -13.75,21.25 -2.5,6.25 -7.5,25 -5,36.25 1.085,4.88 7.5,5 12.5,0 1.25,5 2.5,7.5 8.75,8.75 6.25,1.25 12.5,-3.75 12.5,-3.75 1.25,3.75 1.25,6.25 7.5,7.5 6.25,1.25 16.25,-3.75 16.25,-3.75 1.25,7.5 2.5,8.75 7.5,7.5 5,-1.25 21.25,-7.5 28.75,-12.5 7.5,-5 15,-11.25 15,-11.25 6.915,4.605 29.765,-1.41 35.255,-6.29 0.455,-0.415 0.8,-0.82 0.995,-1.21 2.5,-5 -2.5,-12.5 -2.5,-12.5 0,0 -32.5,-57.5 -56.25,-56.25"
         inkscape:connector-curvature="0"
         style="fill:#f4bb9d" />
      <path
         id="path919"
         d="m 589.624,764.073 c -7.5,0 -52.5,-2.5 -58.75,-2.5 -6.25,0 -21.25,13.75 -30,20 1.25,7.5 13.75,10 21.25,8.75 -6.25,8.75 -11.25,15 -13.75,21.25 -2.5,6.25 -7.5,25 -5,36.25 1.085,4.88 7.5,5 12.5,0 1.25,5 2.5,7.5 8.75,8.75 6.25,1.25 12.5,-3.75 12.5,-3.75 1.25,3.75 1.25,6.25 7.5,7.5 6.25,1.25 16.25,-3.75 16.25,-3.75 1.25,7.5 2.5,8.75 7.5,7.5 5,-1.25 21.25,-7.5 28.75,-12.5 7.5,-5 15,-11.25 15,-11.25 6.915,4.605 29.765,-1.41 35.255,-6.29 0.455,-0.415 0.8,-0.82 0.995,-1.21 2.5,-5 -2.5,-12.5 -2.5,-12.5 0,0 -32.5,-57.5 -56.25,-56.25 z"
         inkscape:connector-curvature="0"
         style="fill-opacity:0;stroke:#1a1919;stroke-width:7.5;stroke-linecap:round;stroke-linejoin:round" />
      <path
         id="path921"
         d="m 618.374,782.823 c 11.25,8.75 26.25,36.25 28.75,43.75 l 1.25,6.25 c 0,0 22.5,-13.75 23.75,-17.5 0,0 -36.25,-36.25 -53.75,-32.5"
         inkscape:connector-curvature="0"
         style="fill:#fffffe" />
      <path
         id="path923"
         d="m 618.374,782.823 c 11.25,8.75 26.25,36.25 28.75,43.75 l 1.25,6.25 c 0,0 22.5,-13.75 23.75,-17.5 0,0 -36.25,-36.25 -53.75,-32.5 z"
         inkscape:connector-curvature="0"
         style="fill-opacity:0;stroke:#1a1919;stroke-width:7.5;stroke-linecap:round;stroke-linejoin:round" />
      <path
         id="path925"
         d="m 664.194,842.393 c -13.75,-23.75 -63.32,-73.32 -78.32,-80.82 10,-10 45,-36.25 58.75,-41.25 0,0 -5,-8.75 -3.75,-13.75 1.25,-5 12.5,-17.5 18.75,-20 -2.5,-30 -2.5,-136.25 7.5,-162.5 10,-26.25 27.5,-51.25 30,-50 8.75,1.25 21.25,23.75 25,33.75 3.75,10 23.75,132.5 22.5,157.5 1.25,15 -1.25,31.25 -1.25,47.5 0,16.25 -35.845,89.57 -79.18,129.57"
         inkscape:connector-curvature="0"
         style="fill:#464d5a" />
      <path
         id="path927"
         d="m 664.194,842.393 c -13.75,-23.75 -63.32,-73.32 -78.32,-80.82 10,-10 45,-36.25 58.75,-41.25 0,0 -5,-8.75 -3.75,-13.75 1.25,-5 12.5,-17.5 18.75,-20 -2.5,-30 -2.5,-136.25 7.5,-162.5 10,-26.25 27.5,-51.25 30,-50 8.75,1.25 21.25,23.75 25,33.75 3.75,10 23.75,132.5 22.5,157.5 1.25,15 -1.25,31.25 -1.25,47.5 0,16.25 -35.845,89.57 -79.18,129.57 z m -114.57,-67.07 c 0,0 -23.75,10 -27.5,15 m 42.5,3.75 c -3.75,2.5 -25,15 -25,15 l -8.385,11.265 m 1.25,-0.625 c 0,0 -16.615,20.61 -16.615,28.11 m 68.75,-37.5 c -3.75,2.5 -23.75,17.5 -23.75,17.5 0,0 -21.25,18.75 -23.75,25 m 60,-22.5 c -3.75,3.75 -26.25,23.75 -36.25,26.25"
         inkscape:connector-curvature="0"
         style="fill-opacity:0;stroke:#1a1919;stroke-width:7.5;stroke-linecap:round;stroke-linejoin:round" />
    </g>
    <text
       id="text3143"
       style="font-style:normal;font-weight:normal;font-size:14.99773884px;font-family:'Times New Roman';text-align:start;text-anchor:start;fill:#000000;stroke-width:0.99999994"
       y="-271.78232"
       x="-1062.3905"
       xml:space="preserve" />
    <text
       id="text3149"
       style="font-style:normal;font-weight:normal;font-size:14.99773884px;font-family:'Times New Roman';text-align:start;text-anchor:start;fill:#000000;stroke-width:0.99999994"
       y="-262.7865"
       x="-1046.8929"
       xml:space="preserve" />
    <text
       id="text3245"
       style="font-style:normal;font-weight:normal;font-size:14.99590206px;font-family:'Times New Roman';text-align:start;text-anchor:start;fill:#000000;stroke-width:0.99999994"
       y="-295.47028"
       x="-873.67365"
       xml:space="preserve" />
    <text
       id="text3285"
       style="font-style:normal;font-weight:normal;font-size:14.99590206px;font-family:'Times New Roman';text-align:start;text-anchor:start;fill:#000000;stroke-width:0.99999994"
       y="-275.47528"
       x="-844.68158"
       xml:space="preserve" />
    <text
       xml:space="preserve"
       x="-11.661085"
       y="69.649429"
       style="font-style:normal;font-weight:normal;font-size:27.6421814px;font-family:'Times New Roman';text-align:start;text-anchor:start;fill:#000000;stroke-width:0.99999994"
       id="text3426"
       transform="scale(0.99993301,1.000067)" />
    <text
       xml:space="preserve"
       x="6.7671108"
       y="81.163567"
       style="font-style:normal;font-weight:normal;font-size:27.6421814px;font-family:'Times New Roman';text-align:start;text-anchor:start;fill:#000000;stroke-width:0.99999994"
       id="text3432"
       transform="scale(0.99993301,1.000067)" />
    <g
       transform="translate(0.61898603,0.68469693)"
       id="g2327">
      <g
         style="stroke:#000000;stroke-width:0.46859685;stroke-miterlimit:4;stroke-dasharray:none;stroke-opacity:1"
         transform="matrix(-6.2620365,0,0,6.5452797,253.5167,-1941.1013)"
         id="g1088">
        <path
           inkscape:connector-curvature="0"
           id="path6141"
           d="m 15.59527,298.42586 -0.240428,-0.17726 -0.52267,-0.31282 -0.543577,-0.25026 -0.585391,-0.19812 -0.606298,-0.14598 -0.627202,-0.0939 -0.627205,-0.0417 -0.627205,0.0104 -0.616749,0.0626 -0.6062975,0.12513 -0.58539,0.16683 -0.55403,0.21898 -0.5122174,0.27111 -0.470403,0.32325 -0.4181362,0.36496 -0.3554154,0.4171 -0.1463481,0.23982 -0.4181356,-0.2294 -0.8049125,-0.27111 -0.7735514,-0.0521 -0.7108311,0.12513 -0.6585645,0.29197 -0.5958439,0.43795 -0.5017635,0.54222 -0.4076824,0.65693 -0.303149,0.71949 -0.1986145,0.77162 -0.062721,0.81334 0.062721,0.81333 0.2195215,0.80291 0.3763225,0.7612 0.5435766,0.69864 0.7317382,0.62564 0.439043,0.27111 -0.386776,0.13556 -0.6899247,0.35453 -0.5853901,0.43795 -0.4808568,0.49008 -0.3867757,0.55266 -0.2926955,0.58393 -0.1777074,0.61521 -0.083628,0.63607 0.010456,0.62565 0.1254408,0.62564 0.229975,0.59436 0.3345086,0.56308 0.4285895,0.51094 0.5435769,0.44838 0.648111,0.36496 0.7526449,0.29196 0.4285897,0.0939 -0.010453,0.38581 0.1149872,0.67778 0.282242,0.58394 0.4076827,0.49008 0.5226702,0.39624 0.6062972,0.3024 0.6794715,0.21897 0.7212846,0.13556 0.7421911,0.0417 0.742192,-0.0313 0.731738,-0.12513 0.6899245,-0.18769 0.616752,-0.27112 0.543577,-0.3441 0.428588,-0.40667 0.313603,-0.47966 0.08363,-0.27111 0.146346,0.29197 0.344963,0.54222 0.407681,0.49009 0.480859,0.42752 0.533123,0.35453 0.574935,0.3024 0.595845,0.23983 0.627205,0.16683 0.637658,0.0939 0.627202,0.0313 0.627205,-0.0521 0.595845,-0.11471 0.574937,-0.19812 0.52267,-0.28153 0.480856,-0.35454 0.407682,-0.43795 0.177709,-0.25026 0.376321,0.23984 0.815365,0.33367 0.867633,0.14599 0.878087,-0.0209 0.846726,-0.17727 0.784005,-0.33367 0.689923,-0.47966 0.418138,-0.44838 0.229974,-0.33368 0.09408,-0.17726 0.146346,0.31282 0.344963,0.56308 0.397228,0.46923 0.439045,0.37538 0.470402,0.3024 0.491309,0.20855 0.512217,0.13555 0.52267,0.0521 0.52267,-0.0209 0.512217,-0.0938 0.501766,-0.15641 0.480856,-0.2294 0.439041,-0.29196 0.407685,-0.35453 0.355413,-0.40667 0.303149,-0.46923 0.114989,-0.26069 0.449495,0.0417 0.825819,-0.0104 0.721284,-0.13555 0.627205,-0.21898 0.554031,-0.32325 0.459948,-0.38581 0.376324,-0.45881 0.292695,-0.51094 0.229975,-0.55265 0.146346,-0.58393 0.07317,-0.60479 0.01044,-0.61522 -0.05227,-0.61521 -0.114985,-0.60479 -0.17771,-0.57351 -0.240428,-0.54222 -0.135893,-0.25026 0.303149,-0.12513 0.543577,-0.30239 0.459949,-0.35453 0.386777,-0.39624 0.303146,-0.44838 0.219524,-0.46923 0.1568,-0.49009 0.07317,-0.50051 0.01044,-0.51094 -0.06272,-0.50052 -0.135895,-0.49009 -0.188161,-0.46923 -0.261337,-0.44837 -0.324056,-0.39624 -0.386775,-0.35453 -0.439044,-0.3024 -0.240428,-0.1147 0.198614,-0.34411 0.261337,-0.6882 0.12544,-0.68821 -0.01044,-0.67778 -0.125439,-0.64649 -0.229977,-0.60479 -0.3136,-0.55266 -0.407684,-0.47966 -0.470402,-0.39624 -0.52267,-0.30239 -0.574939,-0.18769 -0.595843,-0.073 -0.627205,0.073 -0.627202,0.21897 -0.616752,0.38582 -0.606298,0.56307 -0.292695,0.36496 -0.177707,-0.18769 -0.397231,-0.32325 -0.459949,-0.27111 -0.501763,-0.23983 -0.815365,-0.26069 -1.170782,-0.16683 -1.170779,0.0104 -0.846726,0.14598 -0.52267,0.15642 -0.49131,0.19812 -0.439044,0.25025 -0.376321,0.29197 -0.313603,0.3441 -0.125442,0.1877 -0.209067,-0.23983 -0.480856,-0.43795 -0.543577,-0.38582 -0.585391,-0.32325 -0.616751,-0.27111 -0.658563,-0.20855 -0.669019,-0.15641 -0.67947,-0.0938 -0.689926,-0.0313 -0.67947,0.0313 -0.658565,0.0834 -0.64811,0.15641 -0.606298,0.20855 -0.564484,0.28154 -0.52267,0.33368 -0.459951,0.40667 -0.198614,0.2294 z"
           style="fill:#ffffff;fill-opacity:1;fill-rule:nonzero;stroke:#000000;stroke-width:0.46859685;stroke-linecap:butt;stroke-linejoin:miter;stroke-miterlimit:4;stroke-dasharray:none;stroke-opacity:1" />
        <path
           inkscape:connector-curvature="0"
           id="path6147"
           d="m 12.521973,323.45158 -0.01044,0.30239 -0.167254,0.57351 -0.313602,0.52137 -0.459949,0.46923 -0.564484,0.39624 -0.669019,0.31282 -0.7421915,0.21898 -0.825819,0.1147 -0.4285897,0.0104 -0.4285892,-0.0104 -0.8153654,-0.1147 -0.752645,-0.21898 -0.6585644,-0.31282 -0.5749372,-0.39624 -0.4494965,-0.46923 -0.3136022,-0.52137 -0.1672539,-0.57351 -0.020904,-0.30239 0.020904,-0.3024 0.1672539,-0.56308 0.3136022,-0.53179 0.4494965,-0.45881 0.5749372,-0.39624 0.6585644,-0.31282 0.752645,-0.2294 0.8153654,-0.1147 0.4285892,-0.0104 0.4285897,0.0104 0.825819,0.1147 0.7421915,0.2294 0.669019,0.31282 0.564484,0.39624 0.459949,0.45881 0.313602,0.53179 0.167254,0.56308 z"
           style="fill:#ffffff;fill-opacity:1;fill-rule:nonzero;stroke:#000000;stroke-width:0.46859685;stroke-linecap:butt;stroke-linejoin:miter;stroke-miterlimit:4;stroke-dasharray:none;stroke-opacity:1" />
        <path
           inkscape:connector-curvature="0"
           id="path6153"
           d="m 4.4414909,328.45672 -0.010454,0.15641 -0.083628,0.3024 -0.156801,0.27111 -0.2195214,0.25025 -0.292695,0.20855 -0.3240554,0.15641 -0.3763225,0.1147 -0.4076827,0.0626 -0.2195215,0.0104 -0.2195215,-0.0104 -0.4076827,-0.0626 -0.3658689,-0.1147 -0.3345093,-0.15641 -0.2926949,-0.20855 -0.2195215,-0.25025 -0.156801,-0.27111 -0.083627,-0.3024 -0.010454,-0.15641 0.010454,-0.15641 0.083627,-0.30239 0.156801,-0.27112 0.2195215,-0.23983 0.2926969,-0.20855 0.3345093,-0.16683 0.3658689,-0.1147 0.4076827,-0.0626 h 0.2195215 0.2195215 l 0.4076827,0.0626 0.3763224,0.1147 0.3240555,0.16683 0.2926949,0.20855 0.2195215,0.23983 0.156801,0.27112 0.083628,0.30239 z"
           style="fill:#ffffff;fill-opacity:1;fill-rule:nonzero;stroke:#000000;stroke-width:0.46859685;stroke-linecap:butt;stroke-linejoin:miter;stroke-miterlimit:4;stroke-dasharray:none;stroke-opacity:1" />
        <path
           inkscape:connector-curvature="0"
           id="path3283-9"
           d="m -2.2314188,328.97319 c -0.636479,0 -1.157236,0.33065 -1.157236,0.74396 0,0.40918 0.520757,0.74395 1.157236,0.74395 0.6406125,0 1.1572355,-0.33477 1.1572355,-0.74395 0,-0.41331 -0.516623,-0.74396 -1.1572355,-0.74396"
           style="fill:#ffffff;stroke:#000000;stroke-width:0.46859685;stroke-linecap:round;stroke-linejoin:round;stroke-miterlimit:4;stroke-dasharray:none;stroke-opacity:1" />
      </g>
      <g
         id="g2161"
         transform="matrix(0.13431811,0,0,0.13431811,236.64034,32.1321)">
        <g
           style="fill:#26963c;fill-opacity:1"
           id="g2103"
           transform="rotate(35.267,-127.7622,-1345.8621)">
          <path
             id="path2101"
             d="m 248.66,-97 -8.125,46.281 0.032,0.031 c -9.932,1.6228 -19.541,4.2238 -28.719,7.6875 v -0.03099 l -30.156,-36.031 -28.344,16.375 16.094,44.125 0.062,0.031 c -7.684,6.3076 -14.727,13.375 -21.031,21.063 l -0.031,-0.094 -44.125,-16.094 -16.375,28.344 36.031,30.188 c -3.458,9.1707 -6.036,18.765 -7.656,28.688 l -0.032,-0.031 -46.281,8.125 v 32.75 l 46.281,8.125 0.032,-0.031 c 1.62,9.9223 4.198,19.517 7.656,28.688 l -36.031,30.187 16.375,28.344 44.125,-16.094 0.031,-0.094 c 6.304,7.687 13.347,14.755 21.031,21.063 l -0.062,0.031 -16.094,44.125 28.344,16.375 30.156,-36.031 v -0.032 c 9.178,3.464 18.787,6.065 28.719,7.688 l -0.032,0.031 8.125,46.281 h 32.719 l 8.125,-46.281 -0.031,-0.031 c 9.929,-1.618 19.541,-4.198 28.719,-7.656 l 30.187,36.031 28.344,-16.375 -16.125,-44.125 c 7.667,-6.291 14.706,-13.335 21,-21 l 44.156,16.094 16.344,-28.344 -36,-30.188 c 3.459,-9.1714 6.067,-18.763 7.687,-28.687 l 46.282,-8.0937 V 81.657842 l -46.282,-8.125 c -1.621,-9.9131 -4.232,-19.494 -7.687,-28.656 l 36,-30.188 -16.344,-28.344 -44.156,16.094 c -6.294,-7.6652 -13.333,-14.708 -21,-21 l 16.125,-44.126 -28.344,-16.375 -30.187,36.032 c -9.178,-3.4583 -18.79,-6.0378 -28.719,-7.6562 l 0.031,-0.031 -8.125,-46.282 H 248.66 Z m 16.375,79.688 c 63.71,0 115.38,51.634 115.38,115.34 0,63.71 -51.665,115.34 -115.38,115.34 -63.71,0 -115.34,-51.634 -115.34,-115.34 0,-63.71 51.633,-115.34 115.34,-115.34 z"
             inkscape:connector-curvature="0"
             style="fill:#26963c;fill-opacity:1;stroke-width:2;stroke-linecap:round;stroke-linejoin:round" />
        </g>
        <g
           style="fill:#26963c;fill-opacity:1"
           id="g2107"
           transform="rotate(4.4157,252.61219,-11115.108)">
          <path
             id="path2105"
             d="m 193.66,456 -8.125,46.281 0.0313,0.031 c -9.9316,1.623 -19.54,4.224 -28.719,7.688 v -0.031 l -30.156,-36.031 -28.344,16.375 16.094,44.125 0.062,0.031 c -7.684,6.307 -14.727,13.375 -21.031,21.062 l -0.031,-0.094 -44.125,-16.094 -16.375,28.344 36.031,30.188 c -3.458,9.17 -6.036,18.765 -7.656,28.687 l -0.032,-0.031 -46.281,8.125 v 32.75 l 46.281,8.125 0.032,-0.031 c 1.62,9.9223 4.198,19.517 7.656,28.688 l -36.031,30.188 16.375,28.344 44.125,-16.094 0.031,-0.094 c 6.304,7.687 13.347,14.755 21.031,21.062 l -0.062,0.0309 -16.094,44.125 28.344,16.375 30.156,-36.031 v -0.0312 c 9.1783,3.4637 18.787,6.0647 28.719,7.6875 l -0.0313,0.031 8.125,46.281 h 32.719 l 8.125,-46.281 -0.0312,-0.031 c 9.9296,-1.6184 19.541,-4.1977 28.719,-7.6563 l 30.187,36.031 28.344,-16.375 -16.125,-44.125 c 7.6669,-6.2915 14.706,-13.335 21,-21 l 44.156,16.094 16.344,-28.344 -36,-30.188 c 3.459,-9.1719 6.067,-18.764 7.687,-28.688 l 46.282,-8.0937 v -32.75 l -46.282,-8.125 c -1.621,-9.9132 -4.232,-19.493 -7.687,-28.656 l 36,-30.188 -16.344,-28.343 -44.156,16.093 c -6.2938,-7.665 -13.333,-14.708 -21,-21 l 16.125,-44.125 -28.344,-16.375 -30.187,36.032 c -9.1776,-3.459 -18.789,-6.038 -28.719,-7.657 l 0.0312,-0.031 -8.125,-46.281 H 193.66 Z m 16.375,79.687 c 63.71,0 115.38,51.634 115.38,115.34 0,63.71 -51.665,115.34 -115.38,115.34 -63.71,0 -115.34,-51.634 -115.34,-115.34 0,-63.71 51.633,-115.34 115.34,-115.34 z"
             inkscape:connector-curvature="0"
             style="fill:#26963c;fill-opacity:1;stroke-width:2;stroke-linecap:round;stroke-linejoin:round" />
        </g>
        <g
           id="g2111"
           transform="rotate(-24.434,-930.58097,2344.1105)">
          <path
             id="path2109"
             d="m -411.53,18.828 -10.946,59.967 0.0431,0.0402 c -13.38,2.1027 -26.325,5.4728 -38.69,9.9608 v -0.04018 l -40.625,-46.686 -38.184,21.217 21.681,57.174 0.084,0.0402 c -10.352,8.172 -19.84,17.33 -28.332,27.29 l -0.0421,-0.1218 -59.444,-20.853 -22.06,36.726 48.54,39.115 c -4.6585,11.882 -8.1312,24.314 -10.314,37.17 l -0.0421,-0.0402 -62.349,10.528 v 42.434 l 62.349,10.528 0.0421,-0.0402 c 2.1828,12.857 5.6557,25.288 10.314,37.171 l -48.54,39.114 22.06,36.726 59.444,-20.853 0.0421,-0.1218 c 8.4927,9.9601 17.98,19.118 28.332,27.292 l -0.084,0.0402 -21.681,57.173 38.184,21.217 40.625,-46.686 v -0.0414 c 12.365,4.4883 25.309,7.8585 38.69,9.9614 l -0.0431,0.0402 10.946,59.967 h 44.078 l 10.946,-59.967 -0.0418,-0.0402 c 13.376,-2.0965 26.325,-5.4394 38.689,-9.9199 l 40.667,46.686 38.184,-21.217 -21.723,-57.173 c 10.329,-8.1513 19.811,-17.278 28.29,-27.21 l 59.486,20.853 22.018,-36.726 -48.498,-39.115 c 4.6599,-11.883 8.1733,-24.311 10.356,-37.17 l 62.35,-10.487 v -42.434 l -62.35,-10.528 c -2.1838,-12.844 -5.7012,-25.257 -10.356,-37.13 l 48.498,-39.115 -22.018,-36.724 -59.486,20.852 c -8.4791,-9.9316 -17.962,-19.057 -28.29,-27.21 l 21.723,-57.172003 -38.184,-21.217 -40.667,46.686 c -12.364,-4.4809 -25.313,-7.8232 -38.689,-9.9202 l 0.0418,-0.0402 -10.946,-59.967 h -44.078 v -2.5e-4 z m 22.06,103.25 c 85.828,0 155.43,66.902 155.43,149.45 0,82.55 -69.601,149.45 -155.43,149.45 -85.828,0 -155.39,-66.903 -155.39,-149.45 0,-82.55 69.559,-149.45 155.39,-149.45 z"
             inkscape:connector-curvature="0"
             style="fill:#26963c;stroke-width:2;stroke-linecap:round;stroke-linejoin:round" />
        </g>
        <g
           id="g2115"
           transform="rotate(95.801,-409.59574,-71.280018)">
          <path
             id="path2113"
             d="m 9.656,162 -8.125,46.281 0.032,0.031 c -9.932,1.623 -19.541,4.224 -28.719,7.688 v -0.031 l -30.156,-36.031 -28.344,16.375 16.094,44.125 0.062,0.031 c -7.684,6.307 -14.727,13.375 -21.031,21.062 l -0.031,-0.094 -44.125,-16.094 -16.375,28.344 36.031,30.188 c -3.458,9.17 -6.036,18.765 -7.656,28.687 l -0.032,-0.031 -46.281,8.125 v 32.75 l 46.281,8.125 0.032,-0.031 c 1.62,9.923 4.198,19.517 7.656,28.688 l -36.031,30.187 16.375,28.344 44.125,-16.094 0.031,-0.094 c 6.304,7.687 13.347,14.755 21.031,21.063 l -0.062,0.031 -16.094,44.125 28.344,16.375 30.156,-36.031 v -0.031 c 9.178,3.463 18.787,6.064 28.719,7.687 l -0.032,0.031 8.125,46.281 H 42.375 L 50.5,505.781 50.469,505.75 c 9.929,-1.618 19.541,-4.198 28.719,-7.656 l 30.187,36.031 28.344,-16.375 -16.125,-44.125 c 7.667,-6.292 14.706,-13.335 21,-21 l 44.156,16.094 16.344,-28.344 -36,-30.187 c 3.459,-9.172 6.067,-18.764 7.687,-28.688 l 46.282,-8.094 v -32.75 l -46.282,-8.125 c -1.621,-9.913 -4.232,-19.493 -7.687,-28.656 l 36,-30.188 -16.344,-28.343 -44.156,16.093 c -6.294,-7.665 -13.333,-14.708 -21,-21 l 16.125,-44.124 -28.344,-16.375 -30.187,36.031 C 70.01,212.51 60.398,209.931 50.469,208.313 L 50.5,208.281 42.375,162 Z m 16.375,79.687 c 63.71,0 115.38,51.634 115.38,115.34 0,63.71 -51.665,115.34 -115.38,115.34 -63.71,0 -115.34,-51.634 -115.34,-115.34 0,-63.71 51.633,-115.34 115.34,-115.34 z"
             inkscape:connector-curvature="0"
             style="stroke-width:2;stroke-linecap:round;stroke-linejoin:round" />
        </g>
        <g
           style="fill:#26963c;fill-opacity:1"
           id="g2119"
           transform="rotate(4.4157,583.61219,-11225.108)">
          <path
             id="path2117"
             d="m 524.66,346 -8.125,46.281 0.032,0.031 c -9.932,1.623 -19.541,4.224 -28.719,7.688 v -0.031 l -30.156,-36.031 -28.344,16.375 16.094,44.125 0.062,0.031 c -7.684,6.307 -14.727,13.375 -21.031,21.062 l -0.031,-0.094 -44.125,-16.094 -16.375,28.344 36.031,30.188 c -3.458,9.17 -6.036,18.765 -7.656,28.687 l -0.032,-0.031 -46.281,8.125 v 32.75 l 46.281,8.125 0.032,-0.031 c 1.62,9.922 4.198,19.517 7.656,28.688 l -36.031,30.187 16.375,28.344 44.125,-16.094 0.031,-0.094 c 6.304,7.687 13.347,14.755 21.031,21.063 l -0.062,0.031 -16.094,44.125 28.344,16.375 30.156,-36.031 v -0.031 c 9.178,3.463 18.787,6.064 28.719,7.687 l -0.032,0.031 8.125,46.281 h 32.719 l 8.125,-46.281 -0.031,-0.031 c 9.929,-1.618 19.541,-4.198 28.719,-7.656 l 30.187,36.031 28.344,-16.375 -16.125,-44.125 c 7.667,-6.292 14.706,-13.335 21,-21 l 44.156,16.094 16.344,-28.344 -36,-30.187 c 3.459,-9.172 6.067,-18.764 7.687,-28.688 l 46.282,-8.094 v -32.75 l -46.282,-8.125 c -1.621,-9.913 -4.232,-19.493 -7.687,-28.656 l 36,-30.188 -16.344,-28.343 -44.156,16.093 c -6.294,-7.665 -13.333,-14.708 -21,-21 l 16.125,-44.125 -28.344,-16.375 -30.187,36.032 c -9.178,-3.459 -18.79,-6.038 -28.719,-7.657 l 0.031,-0.031 L 557.379,346 Z m 16.375,79.687 c 63.71,0 115.38,51.634 115.38,115.34 0,63.71 -51.665,115.34 -115.38,115.34 -63.71,0 -115.34,-51.634 -115.34,-115.34 0,-63.71 51.633,-115.34 115.34,-115.34 z"
             inkscape:connector-curvature="0"
             style="fill:#26963c;fill-opacity:1;stroke-width:2;stroke-linecap:round;stroke-linejoin:round" />
        </g>
      </g>
    </g>
  </g>
</svg>
